<?xml version="1.0" encoding="UTF-8"?>
<svg xmlns="http://www.w3.org/2000/svg" viewBox="0 0 592 592" width="592" height="592">
<path d="M192.65 10.23C197.84 9.04 204.19 9.96 209.5 9.97C221.17 9.97 232.83 9.98 244.5 9.98C281.5 9.99 318.5 9.93 355.5 9.97C368.5 9.98 381.5 9.97 394.5 9.98C399.13 9.98 405.7 8.72 409.52 11.98C413.34 15.23 412.21 21.07 412.22 25.5C412.24 34.5 412.22 43.5 412.23 52.5C412.23 56.9 412.98 62.11 411.94 66.4C410.43 72.6 403.61 72.88 398.5 72.91C386.17 73 373.83 72.87 361.5 72.9C320.83 73 280.17 72.91 239.5 72.91C228.5 72.9 217.5 72.92 206.5 72.9C201.57 72.89 195.37 73.91 190.81 71.63C185.38 68.91 186.17 62.55 186.17 57.5C186.17 45.83 186.21 34.17 186.17 22.5C186.15 17.47 186.67 11.61 192.65 10.23ZM385.46 22.5C381.73 20.37 376.81 21.21 372.5 21.2C363.5 21.19 354.5 21.22 345.5 21.2C311.5 21.11 277.5 21.17 243.5 21.21C233.17 21.22 222.83 21.2 212.5 21.23C208.66 21.25 203.55 20.01 201.37 23.5C203.97 25.85 208.1 24.96 211.5 24.97C220.5 24.98 229.5 24.97 238.5 24.97C273.83 24.94 309.17 25 344.5 24.97C354.5 24.97 364.5 24.97 374.5 24.97C376.72 24.97 383.4 26.1 384.9 24.25C385.46 23.57 385.07 23.27 385.46 22.5ZM354.19 81.5C353.84 83.09 353.87 84.72 352.1 85.55C348.76 87.12 334.95 86.04 330.5 86.05C310.83 86.09 291.17 86.06 271.5 86.06C265.12 86.06 252.86 87.65 247.61 84.5C247.19 82.62 246.91 80.63 249.02 79.55C252.17 77.95 266.19 79.02 270.5 79.01C290.83 78.95 311.17 79.03 331.5 79.02C337.62 79.02 349.92 77.16 354.19 81.5ZM363.23 94.5C362.83 96.22 362.86 97.62 360.99 98.47C356.97 100.31 340.8 99.01 335.5 99.01C311.5 99.02 287.5 98.99 263.5 99.01C257.5 99.02 251.5 99.02 245.5 99.01C242.29 99 239.11 99.58 236.5 97.5C236.43 95.98 235.96 94.86 237.09 93.61C238.82 91.69 242.22 92.05 244.5 92.06C250.83 92.07 257.17 92.07 263.5 92.07C288.17 92.06 312.83 92.06 337.5 92.09C343.91 92.1 358.96 90.09 363.23 94.5ZM350.11 104.97C352.32 110.55 352.44 129.69 349.52 134.85C316.07 134.85 282.63 134.85 249.18 134.85C247.1 129.95 247.24 109.99 249.19 104.97C282.83 104.97 316.47 104.97 350.11 104.97ZM262.07 109.88C260.63 110.01 259.15 109.57 257.95 110.64C256.9 111.58 257.44 120.69 257.45 122.5C257.47 123.85 256.76 128.58 257.96 129.43C259.13 130.26 260.77 129.84 262.07 129.88C262.07 123.21 262.07 116.55 262.07 109.88ZM355.18 143.5C350.81 146.74 334.62 145 328.5 144.99C308.83 144.97 289.17 144.99 269.5 145C262.93 145 249.98 146.63 244.5 143.8C244.46 142.81 244.1 142.14 244.73 141.19C245.82 139.53 248.74 139.22 250.5 139.07C256.1 138.59 261.88 138.97 267.5 138.97C289.83 138.96 312.17 138.96 334.5 138.97C338.27 138.97 351.82 137.81 354.12 140.39C355.09 141.48 354.89 142.17 355.18 143.5ZM162.65 149.26C170.26 147.97 178.78 149 186.5 148.99C202.5 148.97 218.5 149.04 234.5 148.99C284.5 148.83 334.5 148.91 384.5 148.98C395.83 149 407.17 148.97 418.5 148.98C433.67 149 449.67 149.44 459.52 163C469.31 176.46 466.23 194.83 466.24 210.5C466.26 245.17 466.25 279.83 466.24 314.5C466.24 342.83 466.17 371.17 466.24 399.5C466.27 413.23 468.19 428.55 457.68 439.18C447.51 449.47 437.04 448.97 423.5 448.97C412.17 448.96 400.83 448.92 389.5 448.93C330.5 448.96 271.5 448.9 212.5 448.92C200.83 448.92 189.17 448.92 177.5 448.95C163.37 448.99 152.13 449.83 141.56 438.93C131.4 428.46 133.3 412.91 133.39 399.5C133.58 371.83 133.45 344.17 133.43 316.5C133.4 287.04 133.46 257.57 133.49 228.11C133.51 217.57 133.42 207.04 133.41 196.5C133.41 191.04 132.82 185.27 133.48 179.85C135.39 164.28 147.1 151.9 162.65 149.26ZM166.77 162.37C147.06 166.18 147.36 183.39 147.34 199.5C147.27 234.83 147.48 270.17 147.38 305.5C147.3 334.83 147.4 364.17 147.34 393.5C147.31 405.65 145.02 420.67 154.18 430.31C161.09 437.58 171.14 437.96 180.5 437.99C191.5 438.01 202.5 438.02 213.5 437.98C239.21 437.88 264.78 434.99 290.5 434.99C320.88 434.99 351.17 437.76 381.5 437.9C394.83 437.97 408.17 438.02 421.5 437.99C430.1 437.97 439.85 437.48 446.01 430.48C454.37 420.97 452.2 407.19 452.19 395.5C452.17 368.83 452.17 342.17 452.19 315.5C452.21 281.5 452.19 247.5 452.18 213.5C452.17 199.47 455.33 181.08 446.04 169.49C439.88 161.81 430.45 162.02 421.5 162.02C406.83 162.02 392.17 162.04 377.5 162.04C330.17 162.02 282.83 162.05 235.5 162.04C220.17 162.04 204.83 162.02 189.5 162.04C182.19 162.04 173.96 160.98 166.77 162.37ZM176.58 172.27C183.33 171.42 190.68 172.29 197.5 172.26C213.17 172.2 228.83 172.23 244.5 172.24C287.17 172.27 329.83 172.06 372.5 172.26C385.83 172.33 399.17 172.28 412.5 172.23C421.93 172.2 431.09 171.86 437.07 180.49C443.45 189.71 440.94 208.56 440.97 219.5C441.06 250.5 440.94 281.5 440.97 312.5C440.99 337.17 440.99 361.83 441.03 386.5C441.05 397.52 442.43 410.94 434.14 419.65C424.57 429.71 410.1 428.2 397.5 427.24C388.79 426.58 380.1 426.35 371.46 425.22C358.54 423.53 345.49 422.95 332.5 421.92C319.28 420.86 305.83 419.52 292.5 420.16C284.49 420.54 276.48 421.36 268.5 421.93C265.19 422.16 261.82 421.79 258.51 422.16C247.21 423.43 235.86 425.16 224.5 425.99C208.3 427.17 177.66 432.56 165.62 419.87C156.9 410.68 158.12 397.2 158.21 385.5C158.39 361.51 158.28 337.49 158.21 313.5C158.11 278.5 158.4 243.5 158.27 208.5C158.21 192.7 156.22 174.85 176.58 172.27ZM177.75 178.35C162.39 181.18 164.85 196.51 164.84 208.5C164.82 238.83 164.89 269.17 164.99 299.5C165.05 314.73 164 330.51 165.58 345.66C166.93 358.7 167.61 371.58 171.44 384.2C179.62 411.2 199.21 418.04 225.5 418.02C253.19 418 280.76 412.8 308.5 414.2C320.78 414.81 333.27 414.89 345.5 416.09C355.51 417.06 365.37 417.99 375.5 417.96C390.74 417.92 406.63 415.78 417.59 404.09C430.81 389.97 432.15 366.66 433.28 348.5C435.63 311.03 434.21 273.07 434.18 235.5C434.17 223.83 434.19 212.17 434.18 200.5C434.17 192.96 433.95 185.15 427 180.52C421.22 176.66 413.07 178.02 406.5 178.02C391.5 178.02 376.5 178.04 361.5 178.03C320.83 177.98 280.17 178.05 239.5 178.03C225.83 178.02 212.17 178.04 198.5 178.03C191.79 178.02 184.35 177.14 177.75 178.35ZM299.5 210.05C301.25 211.52 299.56 208.88 300.96 210.69C302.01 212.06 301.43 214.95 301.49 216.59C301.65 220.99 301.74 225.9 302.42 230.24C304.87 245.88 308.07 264.1 319.11 276.38C330.68 289.27 346.9 293.08 363.51 294.78C369.37 295.37 386.41 295.07 390.31 297.5C388.56 298.86 391.2 297.72 389.3 298.73C387.62 299.63 384.36 299.02 382.5 299.02C377.17 299.02 371.83 299.01 366.5 299.02C351.83 299.03 337.17 299.04 322.5 299C314.7 298.98 306.35 299.8 298.68 298.5C297.11 291.66 298.17 283.54 298.17 276.5C298.17 262.17 298.17 247.83 298.17 233.5C298.17 227.99 296.61 214.09 299.5 210.05ZM296.19 299.5C296.19 325.23 296.19 350.95 296.19 376.68C295.7 376.35 294.94 376.49 294.53 376.06C293.74 375.24 293.8 372.82 293.63 371.74C292.88 367.03 292.71 362.24 291.9 357.55C289.52 343.71 284.68 330.18 274.14 320.38C263.41 310.4 248.68 305.98 234.48 304.11C228.85 303.37 223.18 303.2 217.5 302.99C215.46 302.91 211.51 302.96 209.73 301.79C209.3 301.51 209.26 300.85 208.88 300.5C214.41 297.59 226.95 299.19 233.5 299.17C246.17 299.12 258.83 299.23 271.5 299.21C279.61 299.2 288.17 298.42 296.19 299.5ZM222.22 477C222.18 478.03 222.54 480.34 221.84 481.26C220.77 482.68 211.61 482.06 209.5 482.06C198.87 482.05 183.3 480.65 173.29 482.5C173.29 490.62 173.29 498.73 173.29 506.85C183.65 507.38 194.12 507 204.5 506.99C209.4 506.98 213.51 505.08 214.11 510.5C213.74 510.83 213.74 511.5 213.31 511.75C210.95 513.1 205.2 511.99 202.5 511.99C192.84 512.01 182.91 511.36 173.31 512.33C173.31 520.5 173.31 528.68 173.31 536.85C184.61 537.7 196.17 537.06 207.5 537.06C210.41 537.06 219.1 536.13 221.36 537.25C221.85 537.5 221.97 538.18 222.41 538.5C222.19 539.65 222.44 541.05 221.32 541.79C219.78 542.81 209.88 542.02 207.5 542.03C192.15 542.05 176.49 542.88 161.19 541.79C161.19 520.19 161.19 498.6 161.19 477C181.53 477 201.88 477 222.22 477ZM274.24 477.08C274.24 497 274.24 516.91 274.24 536.83C286.21 537.78 298.49 537.06 310.5 537.12C314.69 537.14 321.04 536 324.1 538.5C323.96 539.53 324.21 541.03 323.26 541.72C321.77 542.78 311.83 542.03 309.5 542.03C299.5 542.05 289.5 542.02 279.5 542.03C273.74 542.03 267.52 542.64 261.93 541.5C261.93 520.03 261.93 498.55 261.93 477.08C266.03 477.08 270.14 477.08 274.24 477.08ZM390.5 477.09C393.14 477.09 395.78 477.09 398.42 477.09C412.16 498.7 425.9 520.31 439.63 541.92C434.92 541.92 430.21 541.92 425.5 541.92C421.5 535.65 417.5 529.37 413.5 523.09C398.5 523.09 383.5 523.09 368.5 523.09C365.68 527.84 362.69 532.53 359.71 537.2C358.86 538.53 357.87 541.13 356.33 541.76C354.38 542.56 351.94 541.89 350.03 541.5C363.52 520.03 377.01 498.56 390.5 477.09ZM390.5 487.47C384.38 497.58 378.27 507.69 372.15 517.8C384.6 517.8 397.05 517.8 409.5 517.8C403.17 507.69 396.83 497.58 390.5 487.47ZM201.5 567.22C206.06 566.71 213.29 565.57 217.42 568.05C222.02 570.82 221.02 577.69 216.28 579.77C212.97 581.23 209 580.75 205.5 581.11C205.09 584.9 206.31 585.9 202.5 587.04C201.37 585.48 202.2 587.8 201.46 586.2C200.87 584.93 201.64 581.89 201.65 580.5C201.68 576.07 201.52 571.62 201.5 567.22ZM240.5 566.88C241.45 566.99 242.41 566.74 243.32 567.19C244.88 567.97 245.89 571.4 246.66 572.89C249.02 577.43 251.23 582.27 254.12 586.5C248.51 587.6 249.4 585.5 246.5 581.64C243 581.64 239.51 581.64 236.01 581.64C233.16 584.76 234.38 586.8 229.5 586.84C230.6 582.49 237.02 569.3 240.5 566.88ZM266.5 567.27C270.98 566.71 277.49 565.78 281.7 567.77C284.96 569.31 286.55 573.46 284.04 576.5C282.87 577.91 280.75 578.45 279.26 579.5C281.55 581.83 283.83 584.17 286.12 586.5C279.32 587.86 280.16 583.99 275.98 580.56C274.8 579.6 273.07 579.11 271.7 578.5C274.87 576.23 278.83 577.76 280.78 573.5C279.21 568.47 275.11 569.09 270.5 569.4C269.99 573.51 270.56 577.48 270.22 581.5C270.12 582.75 270.72 585.23 269.91 586.3C269.2 587.25 268.45 586.78 267.5 587.09C266.36 585.56 267.16 587.88 266.39 586.24C265.59 584.52 266.33 570.04 266.5 567.27ZM301.5 567.05C305.49 566.83 309.5 566.81 313.5 566.85C314.38 566.86 316.62 566.46 317.34 567.12C317.92 567.66 317.75 568.69 318.2 569.35C313.9 569.35 309.6 569.35 305.29 569.35C305.29 571.48 305.29 573.62 305.29 575.75C307.6 575.93 312.35 575.09 314.35 576.2C314.8 576.46 314.83 577.16 315.22 577.5C313.51 578.83 316.27 577.78 314.32 578.72C312.33 579.69 307.81 578.73 305.5 578.98C304.91 583.38 306.83 585.73 302.5 587.07C301.29 585.56 302.18 587.9 301.34 586.25C300.49 584.58 301.16 569.57 301.5 567.05ZM333.5 566.88C334.47 567.2 335.2 566.71 335.93 567.69C338.95 571.71 331.13 583.94 342.5 584.97C355.26 586.12 347.71 573.16 350.33 567.71C351.24 565.82 350.2 568.53 351.5 566.78C352.49 567.14 353.19 566.64 353.93 567.67C354.77 568.83 354.2 572.12 354.18 573.5C354.09 578.73 353.84 585.77 347.47 586.95C335.97 589.08 332.19 585.31 332.21 574.5C332.21 571.48 331.79 569.1 333.5 566.88ZM368.5 567.07C370 567 371.83 566.54 373.27 567.26C375.8 568.54 379.08 578.65 382.5 581.28C384.08 578.77 388.75 568.2 390.75 567.3C392.46 566.53 393.8 567.18 395.44 567.5C395.25 572.17 395.34 576.83 395.33 581.5C395.32 582.59 395.95 585.5 395.47 586.43C395.24 586.87 394.83 586.72 394.5 587.08C393.59 586.77 392.77 587.18 392.09 586.27C390.01 583.46 393.52 575.28 390.88 572.5C388.09 577.33 385.29 582.15 382.5 586.98C376.98 584.47 375.62 576.21 371.5 571.84C371.17 574.66 372.26 584.5 370.99 586.3C369.83 587.95 371 585.7 369.5 587.06C368.24 585.55 369.17 587.93 368.29 586.26C367.59 584.91 368.19 582 368.21 580.5C368.28 576.05 367.99 571.45 368.5 567.07ZM215.1 570.5C211.86 569 208.82 568.96 205.3 569.5C205.3 572.31 205.3 575.12 205.3 577.94C208.9 578.21 212.09 578.51 215.19 576.5C216.02 574.15 215.95 572.84 215.1 570.5ZM241.5 570.56C239.99 573.55 238.48 576.54 236.97 579.53C239.75 579.53 242.52 579.53 245.29 579.53C244.03 576.54 242.76 573.55 241.5 570.56Z" fill="#3b82f6" fill-rule="evenodd" stroke="#3b82f6" stroke-width="0.25" stroke-linejoin="round"/>
</svg>